Patient4_TMGait_0pt7_02_right_48_EMG.mot
version=1
nRows=30
nColumns=33
inDegrees=no
endheader
time	1LAddLong	2LGlutMax	3LGlutMed	4LIliopsoas	5LSemiMemb	6LBicFemLong	7LRecFem	8LVastMed	9LVastLat	10LGasMed	11LTibAnt	12lTibPost	13LPeroneusLong	14LSol	15LExtDigLong	16LFlexDigLong	17RAddLong	18RGlutMax	19RGlutMed	20RIliopsoas	21RSemiMemb	22RBicFemLong	23RRecFem	24RVastMed	25RVastLat	26RGasMed	27RTibAnt	28RTibPost	29RPeroneusLong	30RSol	31RExtDigLong	32RFlexDigLong
55.575	-0.006104	0.033722	-0.046844	-0.000916	-0.058594	0.012207	0.10223	0.016937	-0.0383	-0.026093	0.38605	0.011444	-0.078583	0.10574	-0.45929	-0.014191	-0.11551	0.088654	-0.25955	-0.00885	-0.39276	0.15228	0.033569	-0.045166	-0.000458	0.003204	0.29633	-0.004883	0.073547	0.042877	-0.001221	-0.07309
55.576	-0.011444	0.016632	-0.045929	-0.000153	-0.099487	0.015717	0.11322	0.025787	-0.042419	0.00473	0.40329	0.010529	-0.046082	0.032806	-0.49515	-0.005646	-0.15732	0.023804	-0.035248	0.005188	-0.14267	0.17822	0.014343	-0.006561	0.000153	0.003815	-0.12405	-0.004578	0.027466	0.061798	0.000153	-0.074615
55.577	-0.007324	-0.003815	-0.017395	0.00885	-0.091858	-0.011139	0.04776	0.037079	0.025482	0.006104	0.014801	0.014191	0.023804	0.002899	-0.29205	0.011749	-0.16617	-0.10452	-0.19806	0.002441	0.40253	0.14481	-0.027771	0.00473	0.008545	-0.001678	-0.39368	-0.005798	0.058746	0.089264	-0.000916	-0.063171
55.578	0.010986	0.022125	0.015411	0.028229	0.075226	-0.033875	0.082092	0.010834	0.15274	-0.002594	-0.029907	0.007629	-0.013428	0.021973	-0.5278	-0.035858	-0.15915	-0.077972	-0.29068	-0.014191	0.36194	0.10101	-0.031738	0.0383	0.016022	-0.002899	-0.24948	-0.000763	-0.016785	0.010376	0.001221	-0.065918
55.579	0.013275	0.027466	-0.050507	0.029602	0.14786	-0.019836	0.07782	-0.000458	0.076447	-0.023956	-0.036469	0.011139	0.002899	-0.02655	-0.23499	-0.05127	-0.11948	-0.037689	-0.26459	0.035095	0.20783	0.069885	-0.030212	0.009308	0.032349	0.001221	-0.079651	-0.004578	0.046234	-0.077667	0.000763	-0.057831
55.58	-0.000763	0.020905	-0.028534	-0.000305	0.093384	-0.018158	0.098419	-0.016022	-0.016174	-0.002899	0.045319	0.002289	-0.12131	0.005798	0.62103	-0.002136	-0.07782	-0.068054	-0.34973	0.066223	0.14175	0.072784	-0.036469	0.034332	0.020294	-0.004272	0.037384	-0.001221	0.072632	-0.13275	-0.000763	-0.067902
55.581	0.000763	0.041046	0.027466	-0.000916	0.057526	-0.032501	-0.029755	-0.008698	0.002289	0.000458	0.099792	0.011139	-0.072632	0.073242	-0.18173	0.11597	-0.044098	-0.071869	-0.083923	0.063782	0.11917	0.077209	-0.005035	0.057678	0.019073	-0.00885	0.058899	-0.002136	-0.12802	-0.092316	-0.000153	-0.053406
55.582	0.00885	0.027924	0.025482	-0.001526	0.035095	0.005188	-0.068817	-0.016022	0.07843	-0.009308	-0.0177	0.008392	0.054321	0.14053	-0.44601	0.019989	-0.050659	-0.052795	-0.09201	0.01709	0.1326	0.08606	-0.031433	0.050049	0.018311	-0.011292	0.051422	-0.001373	-0.23315	-0.0383	0.002441	-0.068054
55.583	0.005646	0.051422	0.011902	0.020599	-0.006409	0.010681	0.012817	-0.008392	0.10941	-0.026855	-0.13992	0.002594	0.12375	0.18799	-0.27832	-0.39185	-0.039215	-0.033569	-0.079041	-0.029755	0.14465	0.070801	-0.040283	0.058899	0.027008	-0.008392	0.084534	-0.002594	-0.057983	0.005188	-0.000763	-0.065613
55.584	0.000305	0.036774	0.026398	0.011292	-0.020752	0.039673	0.075073	0.000763	0.028839	0.019226	-0.24262	0.013733	0.097351	0.29419	-0.23239	0.76874	-0.042419	-0.044098	-0.30838	-0.009918	0.15457	0.068512	0.016479	0.042877	0.039368	-0.012207	0.18509	-0.004578	0.39139	0.05249	-0.001526	-0.07309
55.585	0.013428	0.045624	0.023956	0.00885	0.009155	0.039673	0.050354	-0.005951	0.04837	0.00412	-0.098114	0.002594	-0.023499	0.28107	-0.16403	-0.80948	-0.011292	-0.05722	-0.49835	-0.005951	0.11688	0.059814	-0.016327	-0.00061	0.023651	-0.011749	0.25207	-0.005951	0.57526	0.094299	-0.000458	-0.06546
55.586	0.014191	0.037994	0	0.011139	0.071411	0.015869	0.11551	0.00946	0.094299	0.020599	0.007172	0.002289	-0.066833	0.11688	0.33356	0.30212	0.009003	-0.015106	-0.51758	0.032196	0.01297	0.05127	0.015869	-0.036316	0.019226	-0.00412	0.38238	-0.004578	0.54535	0.010681	-0.00473	-0.067139
55.587	0.018005	0.052948	-0.018005	0.004883	0.043488	0.02594	0.17792	-0.005951	0.078583	-0.010223	0.096588	0.002899	-0.02243	-0.12222	0.51498	0.53131	0.002441	-0.020447	-0.65903	0.015411	-0.1178	0.07431	0.015564	-0.044556	0.032196	-0.002747	0.42664	-0.002899	0.065765	-0.088348	-0.001068	-0.058594
55.588	0.004272	0.068512	-0.027618	0.01297	0.024872	0.018921	0.1799	-0.013123	0.13733	-0.019836	0.015869	0.003052	-0.046997	-0.15015	0.1059	-0.3064	-0.010376	0.015106	-0.34592	-0.041351	-0.064697	0.076599	0.005493	-0.019836	0.033264	0.000305	0.121	-0.001373	0.019531	-0.15289	-0.001831	-0.054016
55.589	-0.010529	0.10819	-0.051117	0.012207	0.019379	0.016632	0.17731	-0.006714	0.20889	-0.031586	-0.052338	0.017548	-0.056915	-0.32364	-0.18662	-0.40207	-0.042572	0.049591	-0.38025	-0.036621	0.12436	0.051727	-0.023651	-0.009918	0.035858	-0.003967	-0.21576	0.001984	-1.0283	-0.048676	-0.002441	-0.050659
55.59	-0.010071	0.11246	-0.085907	0.026398	-0.003357	0.014191	0.10162	0.001984	0.2417	-0.035706	-0.022888	0.016632	-0.04837	-0.35202	-0.029602	0.36163	-0.04425	0.009613	-0.39963	-0.049438	0.088196	-0.014191	-0.010986	-0.016937	0.032196	-0.016174	-0.21698	-0.009155	-0.29846	0.13977	0.000458	-0.052185
55.591	-0.001221	0.10178	-0.036926	0.015564	-0.013428	0.036774	0.08194	-0.003662	0.31113	-0.02655	-0.08728	0.00885	-0.045166	-0.24353	0.00824	0.17029	-0.020447	0.03006	-0.30441	-0.066528	0.090027	-0.046692	-0.009003	-0.02594	0.036621	-0.025787	-0.15549	-0.005188	0.18295	0.16892	-0.001526	-0.051727
55.592	0.000153	0.12497	0.014954	0.008087	-0.005493	0.020447	0.11429	-0.005341	0.21332	-0.023804	-0.003815	-0.000153	-0.029602	-0.061951	-0.007477	0.008698	-0.019226	-0.026703	-0.21652	-0.047455	0.11719	-0.05661	-0.018005	-0.019531	0.024567	-0.018768	0.057831	0.003357	0.23956	0.026703	0.001221	-0.047913
55.593	-0.000305	0.12741	-0.029297	-0.001068	0.024719	0.016174	0.11536	-0.00885	0.21027	-0.007324	0.050507	0.009308	-0.037689	-0.030823	0.13321	0.005188	-0.01358	-0.015106	-0.059052	-0.033875	-0.000153	-0.078888	-0.024719	-0.012207	0.031433	-0.021515	-0.079651	-0.005188	0.21866	-0.097809	0.003357	-0.040894
55.594	0.007172	0.14236	-0.062561	0.010376	0.036774	0.029449	0.1767	-0.000763	-0.18295	0.027618	0.064697	0.006561	-0.011902	-0.030823	0.52643	-0.041809	0.006866	-0.031891	0.1918	-0.004578	-0.064087	0.004425	-0.048218	-0.037842	0.027466	-0.010223	-0.47684	-0.005035	0.22659	-0.093536	0.001373	-0.034637
55.595	-0.003967	0.12421	-0.071259	0.010376	0.029144	0.016785	0.18906	-0.004883	-0.31189	0.02243	-0.10742	0.00824	0.038147	-0.047607	0.58792	-0.033875	0.011902	-0.070953	-0.2742	0.052643	-0.041199	0.10773	0	-0.014343	0.033112	-0.013428	-0.41931	-0.004425	-0.25375	-0.12039	-0.001526	-0.025787
55.596	0.003204	0.1268	-0.084839	0.006866	0.023499	0.014496	0.16678	-0.008545	-0.19669	0.007019	-0.089569	0.011444	0.033112	-0.074921	0.1831	0.032654	0.019684	-0.048676	-0.47516	0.099487	-0.009613	0.22964	-0.050354	-0.013123	0.043182	-0.011902	-0.19379	-0.005646	-0.7161	-0.10315	0.001068	-0.018311
55.597	-0.000153	0.097656	-0.086517	0.002747	0.018311	0.014801	0.17471	-0.00473	-0.10956	0.006256	0.035553	0.002594	-0.019989	-0.015564	-0.30243	0.050354	0.003967	-0.008087	-0.63797	0.064087	-0.009613	0.14023	-0.040436	-0.048218	0.035095	-0.002747	-0.17563	-0.002136	-0.65643	-0.090027	-0.001678	-0.005951
55.598	0.001373	0.14053	-0.059814	0.009155	0.018921	0.01709	0.16388	-0.00061	-0.055542	0.011444	0.11398	0.022888	-0.053253	0.01358	-0.37903	-0.18951	0.020599	-0.038147	-0.55847	0.061798	0.002441	0.08255	-0.02594	-0.065002	0.016022	-0.000305	-0.034485	-0.002289	-0.52078	-0.086975	-0.001068	0.012512
55.599	-0.005646	0.14969	-0.032959	0.018005	0.016632	0.014496	0.17563	-0.006409	-0.017548	0.032501	0.15808	0.001068	-0.09201	-0.041351	-0.19959	-0.11108	0.014648	-0.020752	-0.72357	0.069122	-0.034485	0.11032	-0.007629	-0.048676	0.028534	0.003357	-0.081024	-0.001678	-0.11169	-0.1387	-0.002136	0.002136
55.6	0.00061	0.14435	-0.053101	0.007477	0.008087	0.026703	0.18524	0.005188	0.01297	0.007019	-0.11231	0.017853	-0.056763	-0.10559	-0.19745	-0.20523	0.001373	0.013123	-0.71457	0.02533	-0.069427	0.1088	-0.009155	-0.081482	0.014191	0.001373	-0.089722	-0.002747	1.2573	-0.091553	0.001526	0.012207
55.601	-0.008392	0.12466	-0.034943	0.016479	0.005798	0.028381	0.1506	-0.001526	0.00351	-0.052338	-0.14572	0.009308	0.01358	-0.073853	-0.11032	-0.103	-0.01709	-0.010986	-0.25833	-0.018921	0.016785	0.13916	-0.074158	-0.072632	0.030975	0.004883	-0.12222	-0.002899	0.080872	-0.068817	-0.000763	0.019684
55.602	-0.01297	0.14038	-0.061951	0.002747	0.023041	0.033569	0.21622	-0.024872	-0.016022	-0.12909	-0.030212	-0.006256	0.002441	0.010529	-0.005035	0.18829	-0.02533	-0.003662	-0.45746	-0.032196	0.1236	0.19394	-0.039368	-0.062256	0.043793	0	-0.10269	0.001373	-0.42267	-0.012665	0.000458	0.016327
55.603	-0.014191	0.13321	-0.051727	0.014954	0.025787	0.030212	0.22873	0.021057	-0.016174	-0.12512	0.097961	0.004272	-0.077209	0.06073	0.18402	-1.0562	-0.016479	-0.056915	-0.70419	0.010071	0.001678	0.098267	-0.066071	-0.052643	0.038757	-0.00946	-0.055237	0.001526	0.14236	-0.019684	0	0.032654
55.604	-0.015717	0.14801	-0.065155	0.019073	0.02655	0.043945	0.19089	0.016022	-0.021362	-0.066833	0.12161	0.006866	-0.075226	0.053864	0.075836	0.012054	-0.014954	0.022125	-0.7103	-0.16312	-0.016174	0.087738	-0.11124	-0.012665	0.033569	-0.012512	-0.074463	-0.003204	-0.05127	-0.009155	-0.000305	0.026245
